<?xml version="1.0" encoding="iso-8859-1"?>
<!-- Generator: Adobe Illustrator 19.0.0, SVG Export Plug-In . SVG Version: 6.00 Build 0)  -->
<svg version="1.1" id="Capa_1" xmlns="http://www.w3.org/2000/svg" xmlns:xlink="http://www.w3.org/1999/xlink" x="0px" y="0px"
	 viewBox="0 0 512 512" style="enable-background:new 0 0 512 512;" xml:space="preserve">
<g>
	<g>
		<path d="M504.5,472.5c-4.143,0-7.5,3.358-7.5,7.5v17H15V67.248c0-4.142-3.357-7.5-7.5-7.5S0,63.105,0,67.248V504.5
			c0,4.142,3.357,7.5,7.5,7.5h497c4.143,0,7.5-3.358,7.5-7.5V480C512,475.858,508.643,472.5,504.5,472.5z"/>
	</g>
</g>
<g>
	<g>
		<path d="M504.5,0H7.5C3.357,0,0,3.358,0,7.5V32c0,4.142,3.357,7.5,7.5,7.5S15,36.142,15,32V15h482v433.25
			c0,4.142,3.357,7.5,7.5,7.5s7.5-3.358,7.5-7.5V7.5C512,3.358,508.643,0,504.5,0z"/>
	</g>
</g>
<g>
	<g>
		<path d="M239.452,64.818c-1.343-3.919-5.608-6.007-9.526-4.666l-10.749,3.681c-3.919,1.342-6.008,5.606-4.666,9.525
			c1.066,3.114,3.978,5.072,7.095,5.072c0.806,0,1.626-0.131,2.431-0.406l10.749-3.681
			C238.705,73.001,240.794,68.737,239.452,64.818z"/>
	</g>
</g>
<g>
	<g>
		<path d="M473.067,439.964c-8.558-25.512-41.555-86.657-67.869-121.661c-1.266-1.696-1.732-2.761-1.903-3.289
			c0.73-0.364,2.378-1.031,3.732-1.58c7.695-3.116,20.574-8.332,29.96-19.058c13.182-15.067,16.07-43.648,6.868-67.965
			c-2.637-6.953-8.865-18.347-16.75-32.772c-8.647-15.819-18.448-33.749-25.616-49.774c-10.319-23.073-9.845-30.578-9.162-32.733
			c1.313-4.142,2.721-6.04,4.341-6.902c0.586,1.799,1.231,3.899,1.809,5.777c1.672,5.44,3.753,12.21,6.395,19.208
			c9.102,24.019,31.742,40.243,41.24,44.319c6.391,2.786,10.569,0.174,12.069-1.078c3.718-3.103,4.18-7.837,3.449-10.938
			c-0.291-1.247-3.122-12.357-7.718-30.381l-5.179-20.324c-5.787-22.743-9.082-28.927-15.451-34.937
			c-8.936-8.46-22.859-13.636-35.534-13.181c-14.839,0.585-27.886,8.876-37.179,23.494c-2.381-2.705-5.329-6.231-7.918-9.329
			c-13.905-16.636-25.241-29.668-34.037-33.539c-23.313-10.258-66.535-16.479-78.411-14.27
			c-17.098,3.194-28.371,7.066-43.085,14.803c-7.116,3.75-9.58,6.825-11.493,9.653c-0.134,0.197-0.254,0.384-0.408,0.585l-0.2,0.264
			c-0.791,1.045-0.859,1.068-0.966,1.104c-3.692,1.192-20.914,7.5-27.371,11.248c-10.438,6.029-8.108,14.299-6.64,17.537
			c3.094,6.92,12.898,22.542,18.288,27.337c6.196,5.421,21.86,2.147,26.046-0.815c2.751-1.931,9.236-3.827,12.933-4.166
			c0.593-0.05,1.674-0.143,2.365-0.155c0.858,0.826,2.209,2.401,3.072,3.946c-4.135,1.54-12.629,4.662-27.142,9.952
			c-3.434,1.252-6.084,3.952-7.271,7.408c-1.189,3.462-0.757,7.229,1.187,10.335c8.509,13.603,13.778,16.471,16.968,17.436
			c7.769,2.389,12.861-0.313,17.891-3.791c-1.407,1.906-3.325,4.379-5.937,7.583c-0.416,0.511-0.748,0.918-0.987,1.219
			c-0.625,0.755-2.289,2.082-3.491,2.787c-7.068-3.164-31.378-13.773-55.851-23.768c-57.463-23.466-64.201-22.622-67.439-22.221
			c-1.529,0.19-6.184,0.77-17.9,12.724c-11.885,12.124-12.405,17.227-12.577,18.909c-0.693,6.84,4.832,16.6,6.274,18.575
			l-0.007,0.005c3.254,4.169,7.541,4.642,10.552,4.308c1.387-0.152,2.698-0.553,4.217-1.018c2.855-0.874,6.407-1.959,10.2-1.307
			c0.783,0.136,1.03,0.321,1.032,0.321c0.205,0.237,0.493,1.06,0.699,3.605c0.348,4.541,4.422,9.315,10.476,9.215
			c2.434-0.021,5.301,0.089,8.668,1.705c2.132,1.009,5.233,3.038,8.254,5.189c-13.816,2.054-29.481,5.359-38.326,8.252
			c-9.924,3.255-19.711,7.306-24.093,14.892c-4.116,7.158-8.926,17.983-10.394,26.032c-1.229,6.753,2.996,14.451,12.917,23.534
			c3.827,3.504,9.469,4.206,14.031,1.749c6.148-3.308,11.791-5.438,15.235-5.762c0.55,0.386,1.439,1.474,1.873,2.298
			c1.589,3.191,5.206,4.826,8.647,3.905c0.637-0.169,62.427-16.495,93.457-11.632c7.705,8.209,17.197,20.494,21.873,26.681
			c-9.871,17.613-42.553,76.025-45.57,82.721c-0.807,1.785-3.229,7.142-4.801,47.591c-10.729,1.431-31.349,4.334-41.136,6.737
			c-6.388,1.594-11.471,3.298-15.518,6.433c-4.141,3.208-6.761,7.629-8.257,13.967c-1.729,7.572-4.238,25.531-4.533,34.168
			c-0.2,4.728,2.886,10.418,10.135,11.741c0.444,0.081,0.896,0.122,1.347,0.122c45.544,0,114.595,0.076,119.166,0.285
			c0.733,0.072,1.64,0.156,2.637,0.156c2.393,0,5.306-0.483,7.604-2.771c3.146-3.132,2.758-7.253,2.626-8.651
			c-0.352-3.516-1.081-15.838-1.25-23.307c-0.024-0.791-0.058-1.583-0.091-2.375c-0.286-6.801-0.261-10.539,3.498-14.594
			c1.391-1.511,4.691-5.158,10.388-11.479c2.773-3.077,2.526-7.819-0.551-10.592c-3.075-2.773-7.819-2.528-10.592,0.55
			c-5.661,6.282-8.929,9.893-10.264,11.344c-8.164,8.807-7.777,18.008-7.466,25.401c0.03,0.732,0.062,1.463,0.082,2.14
			c0.122,5.391,0.53,13.461,0.908,19.144c-16.981-0.22-85.386-0.248-112.963-0.25c0.685-8.523,2.631-21.949,3.929-27.638
			c1.179-4.988,1.998-6.545,12.768-9.233c10.174-2.498,34.776-5.811,42.073-6.767c5.783-0.756,10.136-5.539,10.351-11.371
			c0.977-26.676,2.559-41.85,3.581-44.579c2.337-5.186,29.606-54.157,47.366-85.808c1.439-2.565,1.246-5.736-0.495-8.107
			c-0.658-0.898-16.271-22.126-27.762-33.858c-1.053-1.074-2.402-1.807-3.877-2.104c-28.657-5.776-81.04,6.098-97.519,10.166
			c-2.643-2.862-6.712-5.756-12.157-5.437c-6.53,0.375-14.227,3.619-20.065,6.617c-4.893-4.738-6.529-7.818-6.803-8.801
			c1.182-5.982,5.172-14.974,8.565-20.875c1.399-2.422,6.703-5.154,15.763-8.121c9.685-3.168,32.223-7.752,47.949-9.149
			c5.962-0.578,8.025-4.341,8.636-5.932c0.607-1.584,1.592-5.727-2.342-10.05c-2.776-3.081-15.449-12.826-22.383-16.107
			c-4.3-2.064-8.278-2.793-11.267-3.044c-1.088-4.894-4.141-11.415-13.506-13.042c-7.02-1.21-12.967,0.472-16.682,1.602
			c-0.912-1.915-1.891-4.327-2.125-5.654c2.111-4.416,13.561-15.911,17.802-18.422c2.905,0.32,14.928,2.939,60.685,21.667
			c28.165,11.527,54.047,22.977,55.677,23.754c9.367,4.508,19.8-7.761,19.866-7.847c0.195-0.246,0.489-0.605,0.857-1.056
			c6.548-8.033,11.179-14.292,12.477-18.676c0.884-2.909,1.23-8.653-6.38-14.434c-0.051-0.039-0.104-0.077-0.155-0.115
			c-2.242-1.612-8.524-4.588-18.391,2.576c-4.764,3.396-5.229,3.488-6.55,3.095c-0.405-0.254-2.652-1.847-6.859-8.066
			c16.862-6.152,26.075-9.551,27.409-10.112c2.956-1.25,9.462-5.3,6.032-15.881c-1.917-5.946-6.906-11.292-9.593-13.258
			c-4.018-2.951-8.275-2.588-12.071-2.262c-4.606,0.421-14.036,2.601-20.019,6.684c-1.655,0.731-6.289,1.32-8.543,1.146
			c-3.161-3.525-9.847-13.58-13.006-19.927c4.784-2.684,19.539-8.309,24.3-9.846c4.658-1.547,7.002-4.645,8.261-6.31l0.149-0.197
			c0.313-0.406,0.608-0.835,0.921-1.296c0.823-1.218,1.676-2.477,6.056-4.785c11.349-5.967,21.345-10.061,38.847-13.331
			c7.772-1.443,47.668,3.594,69.622,13.253c6.279,2.763,20.232,19.456,28.568,29.429c7.662,9.166,11.803,14.049,14.893,16.209
			c2.605,1.812,5.253,2.437,7.858,1.857c3.851-0.854,5.583-3.834,6.415-5.267l0.22-0.375c0.13-0.214,0.331-0.576,0.597-1.071
			c6.856-12.751,16.268-19.719,27.188-20.15c8.688-0.317,18.591,3.341,24.667,9.093c3.395,3.203,5.752,6.256,11.217,27.735
			l5.181,20.33c1.87,7.333,3.772,14.794,5.214,20.464c-8.424-5.973-20.245-17.03-25.689-31.397
			c-2.472-6.55-4.477-13.071-6.087-18.31c-2.417-7.864-3.558-11.443-5.243-13.86c-1.386-1.988-3.647-3.183-6.07-3.209
			c-4.837-0.048-17.687-0.191-23.473,18.069c-5.302,16.732,12.323,51.075,35.915,94.233c7.307,13.367,13.617,24.91,15.885,30.891
			c7.237,19.123,5.462,41.811-4.129,52.773c-7.036,8.04-17.845,12.417-24.303,15.033c-3.596,1.456-5.766,2.335-7.409,3.685
			c-3.526,2.835-10.666,10.856-0.794,24.08c25.104,33.394,57.628,93.498,65.658,117.454c0.001,0.001,0.001,0.003,0.002,0.004
			c0,0.002,0.001,0.004,0.002,0.006c0.004,0.012,0.008,0.024,0.013,0.037c0.101,0.295,0.184,0.548,0.254,0.766
			c-0.079,0.066-0.164,0.136-0.257,0.211c-7.73,6.336-17.018,16.784-20.865,22.566c-8.41-0.145-73.022-0.274-96.094-0.316
			c0.85-8.374,2.995-25.33,4.414-28.635c1.997-4.485,3.075-6.127,10.635-7.904c6.349-1.442,15.515-3.312,21.323-4.42
			c6.176-1.21,10.063-6.974,9.451-14.017c-0.696-8.02-6.457-13.948-13.743-14.096c-8.909-0.129-14.98-2.068-21.656-6.917
			l-4.764-3.45c-11.204-8.111-45.301-32.792-48.475-35.678c-4.015-3.657-10.324-6.41-17.582,1.248
			c-0.209,0.221-0.423,0.447-0.666,0.693c-1.351,1.377-10.996,12.071-27.201,30.077c-2.771,3.079-2.521,7.821,0.557,10.592
			c3.08,2.772,7.822,2.521,10.592-0.558c7.765-8.626,23.446-26.051,26.36-29.183c5.501,4.327,20.09,15.032,47.619,34.96l4.747,3.438
			c7.828,5.686,15.549,8.65,25.053,9.513c-4.904,0.988-10.466,2.155-14.993,3.184c-11.255,2.646-16.739,6.941-20.942,16.376
			c-3.444,7.617-6.065,38.104-6.071,38.284c-0.246,5.169,3.831,8.737,5.596,10.031c1.283,0.941,2.832,1.449,4.423,1.452
			c38.988,0.067,98.006,0.209,101.414,0.325c6.642,0.453,9.357-1.814,12.317-6.424c2.614-4.074,10.949-13.712,18.038-19.522
			C475.328,451.722,475.367,446.705,473.067,439.964z"/>
	</g>
</g>
<g>
	<g>
		<path d="M414.074,236.47c-3.03-7.35-11.404-22.904-18.792-36.627l-2.444-4.542c-3.551-6.57-6.675-12.559-8.541-16.137
			c-0.899-1.724-1.527-2.925-1.849-3.512c-2.139-3.798-6.308-5.656-10.38-4.619c-4.17,1.061-7.243,4.986-7.308,9.329l-0.011,0.772
			c-0.027,2.234-0.086,6.883-0.405,10.878c-0.127,1.382-0.196,2.143-3.746,4.021c-2.78,1.474-12.772,4.909-20.067,7.418
			c-3.816,1.313-7.421,2.552-10.445,3.646c-8.546,3.164-11.584,8.722-12.627,12.827c-1.827,7.19,1.405,14.179,4.726,17.977
			c3.035,3.475,8.631,10.104,14.555,17.121c12.462,14.761,18.535,21.909,20.384,23.67c3.773,3.596,8.236,5.418,13.149,5.418
			c2.303,0,4.705-0.4,7.18-1.206c4.678-1.521,24.641-10.372,32.418-19.991C416.557,254.659,417.937,246.024,414.074,236.47z
			 M398.21,253.477c-4.604,5.693-20.816,13.675-25.396,15.162c-0.002,0-0.004,0.001-0.005,0.001
			c-3.105,1.012-4.174,0.303-5.332-0.801c-1.621-1.579-11.826-13.668-19.277-22.495c-5.966-7.067-11.601-13.742-14.722-17.315
			c-0.973-1.115-1.801-3.153-1.482-4.411c0.302-1.186,2.195-2.047,3.243-2.435c2.86-1.034,6.41-2.255,10.169-3.547
			c11.113-3.821,18.663-6.467,22.209-8.346c3.779-1.999,8.043-4.888,10.257-10.145c0.571,1.068,1.159,2.162,1.759,3.271l2.441,4.537
			c7.217,13.405,15.396,28.598,18.113,35.187C401.981,246.577,401.483,249.436,398.21,253.477z"/>
	</g>
</g>
<g>
</g>
<g>
</g>
<g>
</g>
<g>
</g>
<g>
</g>
<g>
</g>
<g>
</g>
<g>
</g>
<g>
</g>
<g>
</g>
<g>
</g>
<g>
</g>
<g>
</g>
<g>
</g>
<g>
</g>
</svg>
